<svg width="390" height="404" viewBox="0 0 390 404" fill="none" xmlns="http://www.w3.org/2000/svg">
<path d="M147.011 9.70026C147.396 0.0206879 159.942 -3.51097 165.32 4.54637L238.509 114.201C240.914 117.804 245.366 119.449 249.536 118.275L376.44 82.5532C385.765 79.9284 393.001 90.7695 387 98.374L305.329 201.866C302.645 205.267 302.457 210.009 304.862 213.612L378.05 323.266C383.428 331.324 375.354 341.555 366.267 338.198L242.603 292.505C238.539 291.004 233.971 292.29 231.287 295.691L149.616 399.182C143.615 406.787 131.389 402.269 131.774 392.59L137.016 260.858C137.188 256.529 134.554 252.582 130.49 251.081L6.82593 205.388C-2.26086 202.03 -1.7426 189.007 7.58225 186.382L134.486 150.66C138.656 149.486 141.596 145.761 141.769 141.432L147.011 9.70026Z" fill="#BB8493"/>
</svg>
