<svg width="613" height="363" viewBox="0 0 613 363" fill="none" xmlns="http://www.w3.org/2000/svg">
<g filter="url(#filter0_d_3_163)">
<path fill-rule="evenodd" clip-rule="evenodd" d="M199.519 140.121C192.109 160.861 202.916 183.681 223.655 191.09C244.255 198.45 266.906 187.84 274.472 167.374L274.289 167.309C278.917 154.355 286.051 142.44 295.283 132.244C304.516 122.047 315.667 113.769 328.099 107.882C340.53 101.995 354 98.6143 367.739 97.9328C381.477 97.2514 395.215 99.2826 408.169 103.91C421.122 108.538 433.037 115.672 443.234 124.905C453.43 134.138 461.708 145.288 467.595 157.72C473.482 170.152 476.863 183.622 477.545 197.36C478.217 210.922 476.247 224.483 471.745 237.289L471.746 237.29C464.336 258.03 475.142 280.85 495.882 288.259C516.622 295.669 539.442 284.863 546.852 264.123L606.436 285.411C601.808 298.364 594.674 310.279 585.441 320.476C576.209 330.672 565.058 338.95 552.626 344.837C540.194 350.724 526.725 354.105 512.986 354.786C499.248 355.468 485.509 353.437 472.556 348.809C459.602 344.181 447.687 337.047 437.491 327.814C427.294 318.582 419.016 307.431 413.129 294.999C407.242 282.567 403.861 269.097 403.18 255.359C402.507 241.797 404.478 228.236 408.98 215.43L408.975 215.428C409.037 215.262 409.098 215.096 409.158 214.929C416.567 194.189 405.761 171.369 385.021 163.959C364.281 156.549 341.461 167.356 334.052 188.096L334.023 188.175L334.209 188.242C329.581 201.195 322.447 213.11 313.215 223.307C303.982 233.503 292.831 241.781 280.399 247.668C267.967 253.555 254.498 256.936 240.759 257.618C227.021 258.299 213.283 256.268 200.329 251.64C187.376 247.012 175.461 239.878 165.264 230.645C155.068 221.413 146.79 210.262 140.903 197.83C135.015 185.398 131.635 171.929 130.953 158.19C130.272 144.452 132.303 130.713 136.931 117.76L199.519 140.121ZM136.931 117.76C144.341 97.02 133.535 74.2002 112.795 66.7904C92.0547 59.3806 69.2348 70.1869 61.825 90.9268L2.24091 69.6391C6.86881 56.6857 14.0028 44.7705 23.2355 34.5741C32.4682 24.3777 43.6188 16.0996 56.0507 10.2125C68.4826 4.32545 81.9524 0.944662 95.6908 0.263206C109.429 -0.418251 123.167 1.61296 136.121 6.24086C149.074 10.8688 160.99 18.0027 171.186 27.2354C181.382 36.4681 189.66 47.6187 195.548 60.0507C201.435 72.4826 204.815 85.9523 205.497 99.6908C206.178 113.429 204.147 127.167 199.519 140.121L136.931 117.76Z" fill="#8E7AB5"/>
</g>
<defs>
<filter id="filter0_d_3_163" x="0.240967" y="0.134583" width="612.195" height="362.781" filterUnits="userSpaceOnUse" color-interpolation-filters="sRGB">
<feFlood flood-opacity="0" result="BackgroundImageFix"/>
<feColorMatrix in="SourceAlpha" type="matrix" values="0 0 0 0 0 0 0 0 0 0 0 0 0 0 0 0 0 0 127 0" result="hardAlpha"/>
<feOffset dx="2" dy="4"/>
<feGaussianBlur stdDeviation="2"/>
<feComposite in2="hardAlpha" operator="out"/>
<feColorMatrix type="matrix" values="0 0 0 0 0 0 0 0 0 0 0 0 0 0 0 0 0 0 0.25 0"/>
<feBlend mode="normal" in2="BackgroundImageFix" result="effect1_dropShadow_3_163"/>
<feBlend mode="normal" in="SourceGraphic" in2="effect1_dropShadow_3_163" result="shape"/>
</filter>
</defs>
</svg>
