<svg width="238" height="238" viewBox="0 0 238 238" fill="none" xmlns="http://www.w3.org/2000/svg">
    <g filter="url(#filter0_dd_35_7)">
        <mask id="path-1-inside-1_35_7" fill="white">
            <path fill-rule="evenodd" clip-rule="evenodd"
                  d="M19 0C10.7157 0 4 6.71573 4 15V215C4 223.284 10.7157 230 19 230H219C227.284 230 234 223.284 234 215V15C234 6.71573 227.284 0 219 0H19ZM155.964 47.7479C159.782 43.757 165.972 43.757 169.789 47.7479L180.158 58.5871C183.976 62.5779 183.976 69.0484 180.158 73.0393L141.522 113.428L181.754 155.484C185.571 159.475 185.571 165.945 181.754 169.936L171.385 180.775C167.567 184.766 161.377 184.766 157.56 180.775L117.328 138.719L78.5112 179.297C74.6935 183.288 68.5038 183.288 64.6861 179.297L54.3173 168.458C50.4996 164.467 50.4996 157.997 54.3173 154.006L93.1345 113.428L55.9126 74.5175C52.0949 70.5266 52.0949 64.0562 55.9126 60.0653L66.2814 49.2261C70.0991 45.2353 76.2888 45.2353 80.1065 49.2261L117.328 88.1364L155.964 47.7479Z"/>
        </mask>
        <path fill-rule="evenodd" clip-rule="evenodd"
              d="M19 0C10.7157 0 4 6.71573 4 15V215C4 223.284 10.7157 230 19 230H219C227.284 230 234 223.284 234 215V15C234 6.71573 227.284 0 219 0H19ZM155.964 47.7479C159.782 43.757 165.972 43.757 169.789 47.7479L180.158 58.5871C183.976 62.5779 183.976 69.0484 180.158 73.0393L141.522 113.428L181.754 155.484C185.571 159.475 185.571 165.945 181.754 169.936L171.385 180.775C167.567 184.766 161.377 184.766 157.56 180.775L117.328 138.719L78.5112 179.297C74.6935 183.288 68.5038 183.288 64.6861 179.297L54.3173 168.458C50.4996 164.467 50.4996 157.997 54.3173 154.006L93.1345 113.428L55.9126 74.5175C52.0949 70.5266 52.0949 64.0562 55.9126 60.0653L66.2814 49.2261C70.0991 45.2353 76.2888 45.2353 80.1065 49.2261L117.328 88.1364L155.964 47.7479Z"
              fill="url(#gradient-fill)"/>
        <path d="M169.789 47.7479L165.454 51.8954L165.454 51.8954L169.789 47.7479ZM155.964 47.7479L151.629 43.6004L151.629 43.6004L155.964 47.7479ZM180.158 58.5871L184.494 54.4395L184.494 54.4395L180.158 58.5871ZM180.158 73.0393L184.494 77.1868L184.494 77.1868L180.158 73.0393ZM141.522 113.428L137.187 109.28L133.219 113.428L137.187 117.575L141.522 113.428ZM181.754 155.484L177.418 159.631L177.418 159.631L181.754 155.484ZM181.754 169.936L186.089 174.084L186.089 174.084L181.754 169.936ZM171.385 180.775L167.049 176.628L167.049 176.628L171.385 180.775ZM157.56 180.775L161.895 176.628L161.895 176.628L157.56 180.775ZM117.328 138.719L121.664 134.572L117.328 130.039L112.993 134.572L117.328 138.719ZM78.5112 179.297L82.8469 183.445L82.8469 183.445L78.5112 179.297ZM64.6861 179.297L60.3504 183.445L60.3504 183.445L64.6861 179.297ZM54.3173 168.458L58.6529 164.31L58.6529 164.31L54.3173 168.458ZM54.3173 154.006L49.9816 149.858L49.9816 149.858L54.3173 154.006ZM93.1345 113.428L97.4701 117.575L101.438 113.428L97.4701 109.28L93.1345 113.428ZM55.9126 74.5175L51.5769 78.665L51.5769 78.665L55.9126 74.5175ZM55.9126 60.0653L51.5769 55.9177L51.5769 55.9177L55.9126 60.0653ZM66.2814 49.2261L70.6171 53.3737L70.6171 53.3737L66.2814 49.2261ZM80.1065 49.2261L84.4422 45.0786L84.4422 45.0786L80.1065 49.2261ZM117.328 88.1364L112.993 92.2839L117.328 96.8163L121.664 92.2839L117.328 88.1364ZM10 15C10 10.0294 14.0294 6 19 6V-6C7.40202 -6 -2 3.40202 -2 15H10ZM10 215V15H-2V215H10ZM19 224C14.0294 224 10 219.971 10 215H-2C-2 226.598 7.40202 236 19 236V224ZM219 224H19V236H219V224ZM228 215C228 219.971 223.971 224 219 224V236C230.598 236 240 226.598 240 215H228ZM228 15V215H240V15H228ZM219 6C223.971 6 228 10.0294 228 15H240C240 3.40202 230.598 -6 219 -6V6ZM19 6H219V-6H19V6ZM174.125 43.6004C167.945 37.1395 157.809 37.1396 151.629 43.6004L160.3 51.8955C161.755 50.3745 163.999 50.3745 165.454 51.8954L174.125 43.6004ZM184.494 54.4395L174.125 43.6004L165.454 51.8954L175.823 62.7346L184.494 54.4395ZM184.494 77.1868C190.531 70.8762 190.531 60.7502 184.494 54.4395L175.823 62.7346C177.421 64.4057 177.421 67.2206 175.823 68.8917L184.494 77.1868ZM145.858 117.575L184.494 77.1868L175.823 68.8917L137.187 109.28L145.858 117.575ZM186.089 151.336L145.858 109.28L137.187 117.575L177.418 159.631L186.089 151.336ZM186.089 174.084C192.126 167.773 192.126 157.647 186.089 151.336L177.418 159.631C179.017 161.303 179.017 164.117 177.418 165.789L186.089 174.084ZM175.72 184.923L186.089 174.084L177.418 165.789L167.049 176.628L175.72 184.923ZM153.224 184.923C159.404 191.384 169.54 191.384 175.72 184.923L167.049 176.628C165.594 178.149 163.35 178.149 161.895 176.628L153.224 184.923ZM112.993 142.867L153.224 184.923L161.895 176.628L121.664 134.572L112.993 142.867ZM82.8469 183.445L121.664 142.867L112.993 134.572L74.1755 175.149L82.8469 183.445ZM60.3504 183.445C66.5309 189.905 76.6664 189.905 82.8469 183.445L74.1755 175.149C72.7206 176.67 70.4767 176.67 69.0217 175.15L60.3504 183.445ZM49.9816 172.605L60.3504 183.445L69.0217 175.15L58.6529 164.31L49.9816 172.605ZM49.9816 149.858C43.9448 156.169 43.9448 166.295 49.9816 172.605L58.6529 164.31C57.0543 162.639 57.0543 159.824 58.6529 158.153L49.9816 149.858ZM88.7988 109.28L49.9816 149.858L58.6529 158.153L97.4701 117.575L88.7988 109.28ZM51.5769 78.665L88.7988 117.575L97.4701 109.28L60.2482 70.37L51.5769 78.665ZM51.5769 55.9177C45.5401 62.2284 45.5401 72.3544 51.5769 78.665L60.2482 70.37C58.6496 68.6989 58.6496 65.8839 60.2482 64.2128L51.5769 55.9177ZM61.9457 45.0786L51.5769 55.9177L60.2482 64.2128L70.6171 53.3737L61.9457 45.0786ZM84.4422 45.0786C78.2617 38.6178 68.1262 38.6178 61.9457 45.0786L70.6171 53.3737C72.072 51.8528 74.3159 51.8527 75.7708 53.3737L84.4422 45.0786ZM121.664 83.9889L84.4422 45.0786L75.7708 53.3737L112.993 92.2839L121.664 83.9889ZM151.629 43.6004L112.993 83.9889L121.664 92.2839L160.3 51.8954L151.629 43.6004Z"
              fill="white" mask="url(#path-1-inside-1_35_7)"/>
    </g>
    <defs>
        <linearGradient id="gradient-fill" x1="0%" y1="0%" x2="100%" y2="100%">
            <stop id="gradient-start-color" style="stop-color:white" offset="0%"/>
            <stop id="gradient-end-color" style="stop-color:white" offset="100%"/>
        </linearGradient>
        
        <filter id="filter0_dd_35_7" x="0" y="0" width="238" height="238" filterUnits="userSpaceOnUse"
                color-interpolation-filters="sRGB">
            <feFlood flood-opacity="0" result="BackgroundImageFix"/>
            <feColorMatrix in="SourceAlpha" type="matrix" values="0 0 0 0 0 0 0 0 0 0 0 0 0 0 0 0 0 0 127 0"
                           result="hardAlpha"/>
            <feOffset dy="4"/>
            <feGaussianBlur stdDeviation="2"/>
            <feComposite in2="hardAlpha" operator="out"/>
            <feColorMatrix type="matrix" values="0 0 0 0 0 0 0 0 0 0 0 0 0 0 0 0 0 0 0.25 0"/>
            <feBlend mode="normal" in2="BackgroundImageFix" result="effect1_dropShadow_35_7"/>
            <feColorMatrix in="SourceAlpha" type="matrix" values="0 0 0 0 0 0 0 0 0 0 0 0 0 0 0 0 0 0 127 0"
                           result="hardAlpha"/>
            <feOffset dy="4"/>
            <feGaussianBlur stdDeviation="2"/>
            <feComposite in2="hardAlpha" operator="out"/>
            <feColorMatrix type="matrix" values="0 0 0 0 0 0 0 0 0 0 0 0 0 0 0 0 0 0 0.25 0"/>
            <feBlend mode="normal" in2="effect1_dropShadow_35_7" result="effect2_dropShadow_35_7"/>
            <feBlend mode="normal" in="SourceGraphic" in2="effect2_dropShadow_35_7" result="shape"/>
        </filter>
    </defs>
</svg>
